<?xml version="1.0" encoding="utf-8"?>
<!-- Generator: Adobe Illustrator 21.1.0, SVG Export Plug-In . SVG Version: 6.00 Build 0)  -->
<svg version="1.1" xmlns="http://www.w3.org/2000/svg" xmlns:xlink="http://www.w3.org/1999/xlink" x="0px" y="0px"
	 viewBox="0 0 1920 1920" style="enable-background:new 0 0 1920 1920;" xml:space="preserve">
<style type="text/css">
	.st0{display:none;}
	.st1{display:inline;}
	.st2{display:inline;fill:none;stroke:#000000;stroke-miterlimit:10;}
	.st3{display:inline;fill:none;stroke:#FF0000;stroke-miterlimit:10;}
	.st4{display:none;fill:#00BDFF;stroke:#000000;stroke-width:5;stroke-miterlimit:10;}
	.st5{fill:#00BDFF;stroke:#000000;stroke-width:5;stroke-miterlimit:10;}
	.st6{fill:none;stroke:#000000;stroke-miterlimit:10;}
	.st7{stroke:#000000;stroke-width:5;stroke-miterlimit:10;}
	.st8{fill:#FFFFFF;stroke:#000000;stroke-miterlimit:10;}
	.st9{fill:url(#SVGID_1_);stroke:#1D1D1D;stroke-width:10;stroke-miterlimit:10;}
	.st10{fill:#FFFFFF;stroke:#1D1D1D;stroke-width:10;stroke-miterlimit:10;}
	.st11{fill:#1D1D1D;}
	.st12{display:none;stroke:#000000;stroke-width:5;stroke-miterlimit:10;}
	.st13{display:none;fill:#FFFFFF;stroke:#000000;stroke-miterlimit:10;}
	.st14{fill:url(#SVGID_2_);stroke:#1D1D1D;stroke-width:10;stroke-miterlimit:10;}
	.st15{clip-path:url(#SVGID_4_);}
	.st16{clip-path:url(#SVGID_6_);}
	.st17{clip-path:url(#SVGID_8_);}
	.st18{clip-path:url(#SVGID_10_);}
	.st19{clip-path:url(#SVGID_12_);}
	.st20{clip-path:url(#SVGID_14_);}
</style>
<g id="Layer_1" class="st0">
	<ellipse class="st2" cx="1050" cy="960.5" rx="200" ry="600"/>
	<ellipse class="st2" cx="870" cy="960.5" rx="200" ry="600"/>
	<line class="st2" x1="960" y1="424.5" x2="960" y2="960.5"/>
	<line class="st2" x1="960" y1="1496.5" x2="960" y2="960.5"/>
	<line class="st2" x1="960" y1="960.5" x2="1070" y2="960.5"/>
	<line class="st2" x1="960" y1="960.5" x2="850" y2="960.5"/>
	<line class="st3" x1="960" y1="424" x2="960" y2="464"/>
	<line class="st3" x1="960" y1="1456.5" x2="960" y2="1496.5"/>
	<line class="st3" x1="960" y1="1456.5" x2="982.6" y2="1456.5"/>
	<line class="st3" x1="960" y1="1456.5" x2="937.4" y2="1456.5"/>
	<line class="st3" x1="960" y1="464" x2="982.6" y2="464"/>
	<line class="st3" x1="960" y1="464" x2="937.4" y2="464"/>
</g>
<g id="Layer_2" class="st0">
	<g class="st1">
		<path class="st4" d="M982.3,464c-7.1-14.5-14.6-27.7-22.3-39.5c-7.7,11.7-15.2,24.9-22.3,39.5H960H982.3z"/>
		<path class="st4" d="M937.4,1456.5c7.2,14.7,14.7,28.1,22.6,40c7.8-11.9,15.4-25.3,22.6-40H960H937.4z"/>
		<path class="st5" d="M982.3,464H960h-22.3c-52.9,108-87.7,290-87.7,496.5c0,206.1,34.6,387.9,87.4,496H960h22.6
			c52.8-108,87.4-289.8,87.4-496C1070,754.1,1035.2,572,982.3,464z"/>
	</g>
</g>
<g id="Layer_3" class="st0">
	<ellipse class="st6" cx="1842.9" cy="974" rx="1009.3" ry="882"/>
	<ellipse class="st6" cx="39.9" cy="974" rx="1009.3" ry="882"/>
	<g class="st1">
		<path class="st7" d="M852.2,960c0,130.6,32.5,254.5,90.7,366H977c58.3-111.5,90.7-235.4,90.7-366c0-130.6-32.5-254.6-90.8-366.1
			h-34C884.7,705.5,852.2,829.4,852.2,960z"/>
		<path class="st8" d="M997.2,1195.5c33.5-71.5,52.1-151.3,52.1-235.5c0-84.2-18.7-164-52.1-235.5c22.1,74.6,34,153.7,34,235.5
			S1019.4,1120.8,997.2,1195.5z"/>
	</g>
</g>
<g id="Layer_4" class="st0">
</g>
<g id="Layer_5" class="st0">
</g>
<g id="Layer_6" class="st0">
</g>
<g id="Layer_7" class="st0">
</g>
<g id="Layer_8" class="st0">
</g>
<g id="final">
	<g id="Layer_10">
	</g>
</g>
<g id="Layer_11" class="st0">
</g>
</svg>
