<?xml version="1.0" encoding="utf-8"?>
<!-- Generator: Adobe Illustrator 21.1.0, SVG Export Plug-In . SVG Version: 6.00 Build 0)  -->
<svg version="1.1" xmlns="http://www.w3.org/2000/svg" xmlns:xlink="http://www.w3.org/1999/xlink" x="0px" y="0px"
	 viewBox="0 0 1920 1920" style="enable-background:new 0 0 1920 1920;" xml:space="preserve">
<style type="text/css">
	.st0{display:none;}
	.st1{display:inline;}
	.st2{display:inline;fill:none;stroke:#000000;stroke-miterlimit:10;}
	.st3{display:inline;fill:none;stroke:#FF0000;stroke-miterlimit:10;}
	.st4{display:none;fill:#00BDFF;stroke:#000000;stroke-width:5;stroke-miterlimit:10;}
	.st5{fill:#00BDFF;stroke:#000000;stroke-width:5;stroke-miterlimit:10;}
	.st6{fill:none;stroke:#000000;stroke-miterlimit:10;}
	.st7{stroke:#000000;stroke-width:5;stroke-miterlimit:10;}
	.st8{fill:#FFFFFF;stroke:#000000;stroke-miterlimit:10;}
	.st9{fill:url(#SVGID_1_);stroke:#1D1D1D;stroke-width:10;stroke-miterlimit:10;}
	.st10{fill:#FFFFFF;stroke:#1D1D1D;stroke-width:10;stroke-miterlimit:10;}
	.st11{fill:#1D1D1D;}
	.st12{display:none;stroke:#000000;stroke-width:5;stroke-miterlimit:10;}
	.st13{display:none;fill:#FFFFFF;stroke:#000000;stroke-miterlimit:10;}
	.st14{fill:url(#SVGID_2_);stroke:#1D1D1D;stroke-width:10;stroke-miterlimit:10;}
	.st15{clip-path:url(#SVGID_4_);}
	.st16{clip-path:url(#SVGID_6_);}
	.st17{clip-path:url(#SVGID_8_);}
	.st18{clip-path:url(#SVGID_10_);}
	.st19{clip-path:url(#SVGID_12_);}
	.st20{clip-path:url(#SVGID_14_);}
</style>
<g id="Layer_1" class="st0">
	<g class="st1">
		<path d="M653.8,927.3h-18.9v-6.8h45.9v6.8h-19v55.2h-8.1V927.3z"/>
		<path d="M686.8,917.2h8.1V945h0.2c1.3-2.3,3.3-4.3,5.8-5.7c2.4-1.4,5.2-2.3,8.3-2.3c6,0,15.5,3.7,15.5,19v26.5h-8.1v-25.6
			c0-7.2-2.7-13.2-10.3-13.2c-5.2,0-9.4,3.7-10.9,8.1c-0.5,1.1-0.6,2.3-0.6,3.9v26.9h-8.1V917.2z"/>
		<path d="M742.4,961.7c0.2,10.9,7.2,15.5,15.3,15.5c5.8,0,9.3-1,12.3-2.3l1.4,5.8c-2.9,1.3-7.7,2.8-14.8,2.8
			c-13.7,0-21.9-9-21.9-22.4s7.9-24,20.9-24c14.5,0,18.4,12.8,18.4,21c0,1.7-0.2,2.9-0.3,3.8H742.4z M766.1,955.9
			c0.1-5.2-2.1-13.2-11.2-13.2c-8.2,0-11.8,7.5-12.4,13.2H766.1z"/>
		<path d="M827.6,980.5c-2.9,1.5-8.8,2.9-16.4,2.9c-17.5,0-30.6-11-30.6-31.4c0-19.4,13.2-32.6,32.4-32.6c7.7,0,12.6,1.7,14.7,2.8
			l-1.9,6.5c-3-1.5-7.4-2.6-12.5-2.6c-14.5,0-24.2,9.3-24.2,25.6c0,15.2,8.7,24.9,23.8,24.9c4.9,0,9.8-1,13.1-2.6L827.6,980.5z"/>
		<path d="M838.4,938l9.8,26.3c1,2.9,2.1,6.4,2.9,9.1h0.2c0.8-2.7,1.7-6.1,2.9-9.3l8.8-26.1h8.6l-12.1,31.7
			c-5.8,15.3-9.8,23.1-15.3,27.9c-4,3.5-7.9,4.9-9.9,5.2l-2-6.8c2-0.6,4.7-1.9,7.1-4c2.2-1.7,5-4.9,6.8-9c0.4-0.8,0.6-1.5,0.6-1.9
			s-0.2-1.1-0.6-2.1l-16.5-41H838.4z"/>
		<path d="M878.4,982.5c0.2-3,0.4-7.5,0.4-11.5v-53.8h8v28h0.2c2.9-5,8-8.2,15.2-8.2c11,0,18.9,9.2,18.8,22.7
			c0,15.9-10,23.8-20,23.8c-6.4,0-11.6-2.5-14.9-8.4h-0.3l-0.4,7.4H878.4z M886.8,964.7c0,1,0.2,2,0.4,2.9c1.6,5.6,6.3,9.5,12.1,9.5
			c8.5,0,13.5-6.9,13.5-17.1c0-8.9-4.6-16.6-13.2-16.6c-5.5,0-10.7,3.8-12.3,9.9c-0.2,0.9-0.5,2-0.5,3.3V964.7z"/>
		<path d="M935.7,961.7c0.2,10.9,7.2,15.5,15.3,15.5c5.8,0,9.3-1,12.3-2.3l1.4,5.8c-2.9,1.3-7.7,2.8-14.8,2.8
			c-13.7,0-21.9-9-21.9-22.4s7.9-24,20.9-24c14.5,0,18.4,12.8,18.4,21c0,1.7-0.2,2.9-0.3,3.8H935.7z M959.4,955.9
			c0.1-5.2-2.1-13.2-11.2-13.2c-8.2,0-11.8,7.5-12.4,13.2H959.4z"/>
		<path d="M977.2,951.9c0-5.2-0.1-9.8-0.4-13.9h7.1l0.3,8.7h0.4c2-6,6.9-9.8,12.3-9.8c0.9,0,1.6,0.1,2.3,0.3v7.6
			c-0.8-0.2-1.7-0.3-2.8-0.3c-5.7,0-9.8,4.3-10.9,10.4c-0.2,1.1-0.4,2.4-0.4,3.8v23.7h-8V951.9z"/>
		<path d="M1050.9,980.5c-2.9,1.5-8.8,2.9-16.4,2.9c-17.5,0-30.6-11-30.6-31.4c0-19.4,13.2-32.6,32.4-32.6c7.7,0,12.6,1.7,14.7,2.8
			l-1.9,6.5c-3-1.5-7.4-2.6-12.5-2.6c-14.5,0-24.2,9.3-24.2,25.6c0,15.2,8.7,24.9,23.8,24.9c4.9,0,9.8-1,13.1-2.6L1050.9,980.5z"/>
		<path d="M1100,959.9c0,16.5-11.4,23.6-22.2,23.6c-12.1,0-21.3-8.8-21.3-22.9c0-14.9,9.8-23.6,22.1-23.6
			C1091.3,937,1100,946.3,1100,959.9z M1064.6,960.3c0,9.8,5.6,17.1,13.5,17.1c7.7,0,13.5-7.3,13.5-17.3c0-7.5-3.8-17.1-13.3-17.1
			C1068.8,943,1064.6,951.9,1064.6,960.3z"/>
		<path d="M1110.2,950c0-4.6-0.1-8.4-0.4-12.1h7.2l0.5,7.4h0.2c2.2-4.2,7.4-8.4,14.7-8.4c6.2,0,15.7,3.7,15.7,19v26.6h-8.1v-25.7
			c0-7.2-2.7-13.2-10.3-13.2c-5.3,0-9.5,3.8-10.9,8.3c-0.4,1-0.6,2.4-0.6,3.8v26.8h-8.1V950z"/>
		<path d="M1163.2,938l8.7,25c1.5,4,2.7,7.7,3.6,11.4h0.3c1-3.7,2.3-7.4,3.8-11.4l8.6-25h8.5l-17.5,44.5h-7.7l-16.9-44.5H1163.2z"/>
		<path d="M1207.9,961.7c0.2,10.9,7.2,15.5,15.3,15.5c5.8,0,9.3-1,12.3-2.3l1.4,5.8c-2.9,1.3-7.7,2.8-14.8,2.8
			c-13.7,0-21.9-9-21.9-22.4s7.9-24,20.9-24c14.5,0,18.4,12.8,18.4,21c0,1.7-0.2,2.9-0.3,3.8H1207.9z M1231.6,955.9
			c0.1-5.2-2.1-13.2-11.2-13.2c-8.2,0-11.8,7.5-12.4,13.2H1231.6z"/>
		<path d="M1253,938l6.3,9.6c1.7,2.5,3,4.8,4.5,7.3h0.3c1.5-2.7,2.9-5,4.4-7.4l6.3-9.5h8.7l-15.2,21.5l15.6,23h-9.2l-6.5-10
			c-1.7-2.6-3.2-5.1-4.8-7.7h-0.2c-1.5,2.7-3,5.1-4.7,7.7l-6.4,10h-8.9l15.8-22.7L1244,938H1253z"/>
	</g>
	<g class="st1">
		<path d="M617.3,506.4h-18.9v-6.8h45.9v6.8h-19v55.2h-8.1V506.4z"/>
		<path d="M659.2,499.6v25.9h30v-25.9h8.1v62h-8.1v-29.1h-30v29.1h-8v-62H659.2z"/>
		<path d="M743.3,532.5h-24.1v22.4h26.9v6.7h-34.9v-62h33.5v6.7h-25.5v19.6h24.1V532.5z"/>
		<path d="M799.8,559.6c-2.9,1.5-8.8,2.9-16.4,2.9c-17.5,0-30.6-11-30.6-31.4c0-19.4,13.2-32.6,32.4-32.6c7.7,0,12.6,1.7,14.7,2.8
			l-1.9,6.5c-3-1.5-7.4-2.6-12.5-2.6c-14.5,0-24.2,9.3-24.2,25.6c0,15.2,8.7,24.9,23.8,24.9c4.9,0,9.8-1,13.1-2.6L799.8,559.6z"/>
		<path d="M823.9,561.6v-26.3l-19.6-35.7h9.1l8.7,17.1c2.4,4.7,4.2,8.5,6.2,12.8h0.2c1.7-4,3.9-8.1,6.3-12.8l8.9-17.1h9.1L832,535.2
			v26.4H823.9z"/>
		<path d="M859.2,500.4c3.5-0.7,9-1.3,14.6-1.3c8,0,13.2,1.4,17,4.5c3.2,2.4,5.2,6.1,5.2,10.9c0,6-4,11.2-10.5,13.6v0.2
			c5.9,1.5,12.8,6.3,12.8,15.5c0,5.3-2.1,9.4-5.2,12.4c-4.3,4-11.3,5.8-21.4,5.8c-5.5,0-9.8-0.4-12.4-0.7V500.4z M867.2,525.8h7.3
			c8.5,0,13.4-4.4,13.4-10.4c0-7.3-5.5-10.1-13.6-10.1c-3.7,0-5.8,0.3-7.1,0.6V525.8z M867.2,555.5c1.6,0.3,3.9,0.4,6.7,0.4
			c8.3,0,15.9-3,15.9-12.1c0-8.5-7.3-12-16-12h-6.6V555.5z"/>
		<path d="M941.2,532.5h-24.1v22.4h26.9v6.7h-34.9v-62h33.5v6.7h-25.5v19.6h24.1V532.5z"/>
		<path d="M954.3,500.4c4-0.8,9.8-1.3,15.4-1.3c8.6,0,14.1,1.6,17.9,5.1c3.1,2.8,4.9,7,4.9,11.8c0,8.2-5.2,13.6-11.7,15.8v0.3
			c4.8,1.7,7.6,6.1,9.1,12.5c2,8.6,3.5,14.6,4.8,17h-8.3c-1-1.7-2.4-7.1-4.1-14.8c-1.8-8.6-5.2-11.8-12.4-12.1h-7.5v26.9h-8V500.4z
			 M962.3,528.6h8.2c8.6,0,14-4.7,14-11.8c0-8-5.8-11.5-14.3-11.6c-3.9,0-6.6,0.4-7.9,0.7V528.6z"/>
		<path d="M1047.4,559.6c-2.9,1.5-8.8,2.9-16.4,2.9c-17.5,0-30.6-11-30.6-31.4c0-19.4,13.2-32.6,32.4-32.6c7.7,0,12.6,1.7,14.7,2.8
			l-1.9,6.5c-3-1.5-7.4-2.6-12.5-2.6c-14.5,0-24.2,9.3-24.2,25.6c0,15.2,8.7,24.9,23.8,24.9c4.9,0,9.8-1,13.1-2.6L1047.4,559.6z"/>
		<path d="M1108.5,529.9c0,21.3-13,32.7-28.8,32.7c-16.4,0-27.9-12.7-27.9-31.5c0-19.7,12.2-32.6,28.8-32.6
			C1097.6,498.6,1108.5,511.5,1108.5,529.9z M1060.4,530.9c0,13.2,7.2,25.1,19.8,25.1c12.7,0,19.9-11.7,19.9-25.8
			c0-12.3-6.4-25.2-19.8-25.2C1067,505.1,1060.4,517.3,1060.4,530.9z"/>
		<path d="M1118.9,561.6v-62h8.7l19.9,31.4c4.6,7.3,8.2,13.8,11.1,20.1l0.2-0.1c-0.7-8.3-0.9-15.8-0.9-25.5v-25.9h7.5v62h-8.1
			l-19.7-31.5c-4.3-6.9-8.5-14-11.6-20.7l-0.3,0.1c0.5,7.8,0.6,15.3,0.6,25.6v26.5H1118.9z"/>
		<path d="M1193.1,561.6l-20.2-62h8.6l9.7,30.5c2.7,8.4,5,15.9,6.6,23.2h0.2c1.7-7.2,4.3-15,7.1-23.1l10.5-30.6h8.6l-22.2,62H1193.1
			z"/>
		<path d="M1262.9,532.5h-24.1v22.4h26.9v6.7h-34.9v-62h33.5v6.7h-25.5v19.6h24.1V532.5z"/>
		<path d="M1310,561.6l-7.9-13.7c-3.2-5.2-5.2-8.6-7.2-12.2h-0.2c-1.7,3.6-3.5,6.9-6.7,12.3l-7.5,13.6h-9.2l19-31.4l-18.2-30.6h9.3
			l8.2,14.5c2.3,4,4,7.2,5.7,10.5h0.3c1.7-3.7,3.3-6.5,5.6-10.5l8.5-14.5h9.2l-18.9,30.2l19.3,31.8H1310z"/>
	</g>
	<g class="st1">
		<path d="M669.4,1418.2v12.8H681v6.2h-11.6v24c0,5.5,1.6,8.6,6.1,8.6c2.1,0,3.7-0.3,4.7-0.6l0.4,6.1c-1.6,0.6-4,1.1-7.2,1.1
			c-3.8,0-6.8-1.2-8.7-3.4c-2.3-2.4-3.1-6.3-3.1-11.6v-24.3h-6.9v-6.2h6.9v-10.7L669.4,1418.2z"/>
		<path d="M690.1,1410.2h8.1v27.8h0.2c1.3-2.3,3.3-4.3,5.8-5.7c2.4-1.4,5.2-2.3,8.3-2.3c6,0,15.5,3.7,15.5,19v26.5h-8.1V1450
			c0-7.2-2.7-13.2-10.3-13.2c-5.2,0-9.4,3.7-10.9,8.1c-0.5,1.1-0.6,2.3-0.6,3.9v26.9h-8.1V1410.2z"/>
		<path d="M745.6,1454.7c0.2,10.9,7.2,15.5,15.3,15.5c5.8,0,9.3-1,12.3-2.3l1.4,5.8c-2.9,1.3-7.7,2.8-14.8,2.8
			c-13.7,0-21.9-9-21.9-22.4c0-13.4,7.9-24,20.9-24c14.5,0,18.4,12.8,18.4,21c0,1.7-0.2,2.9-0.3,3.8H745.6z M769.4,1448.9
			c0.1-5.2-2.1-13.2-11.2-13.2c-8.2,0-11.8,7.5-12.4,13.2H769.4z"/>
		<path d="M819,1473.9c-2.1,1.1-6.8,2.6-12.8,2.6c-13.4,0-22.2-9.1-22.2-22.7c0-13.7,9.4-23.6,23.9-23.6c4.8,0,9,1.2,11.2,2.3
			l-1.8,6.3c-1.9-1.1-5-2.1-9.4-2.1c-10.2,0-15.7,7.5-15.7,16.8c0,10.3,6.6,16.7,15.5,16.7c4.6,0,7.6-1.2,9.9-2.2L819,1473.9z"/>
		<path d="M833,1431l9.8,26.3c1,2.9,2.1,6.4,2.9,9.1h0.2c0.8-2.7,1.7-6.1,2.9-9.3l8.8-26.1h8.6l-12.1,31.7
			c-5.8,15.3-9.8,23.1-15.3,27.9c-4,3.5-7.9,4.9-9.9,5.2l-2-6.8c2-0.6,4.7-1.9,7.1-4c2.2-1.7,5-4.9,6.8-9c0.4-0.8,0.6-1.5,0.6-1.9
			s-0.2-1.1-0.6-2.1l-16.5-41H833z"/>
		<path d="M873.1,1475.5c0.2-3,0.4-7.5,0.4-11.5v-53.8h8v28h0.2c2.9-5,8-8.2,15.2-8.2c11,0,18.9,9.2,18.8,22.7
			c0,15.9-10,23.8-20,23.8c-6.4,0-11.6-2.5-14.9-8.4h-0.3l-0.4,7.4H873.1z M881.4,1457.7c0,1,0.2,2,0.4,2.9
			c1.6,5.6,6.3,9.5,12.1,9.5c8.5,0,13.5-6.9,13.5-17.1c0-8.9-4.6-16.6-13.2-16.6c-5.5,0-10.7,3.8-12.3,9.9c-0.2,0.9-0.5,2-0.5,3.3
			V1457.7z"/>
		<path d="M930.3,1454.7c0.2,10.9,7.2,15.5,15.3,15.5c5.8,0,9.3-1,12.3-2.3l1.4,5.8c-2.9,1.3-7.7,2.8-14.8,2.8
			c-13.7,0-21.9-9-21.9-22.4c0-13.4,7.9-24,20.9-24c14.5,0,18.4,12.8,18.4,21c0,1.7-0.2,2.9-0.3,3.8H930.3z M954,1448.9
			c0.1-5.2-2.1-13.2-11.2-13.2c-8.2,0-11.8,7.5-12.4,13.2H954z"/>
		<path d="M971.9,1444.9c0-5.2-0.1-9.8-0.4-13.9h7.1l0.3,8.7h0.4c2-6,6.9-9.8,12.3-9.8c0.9,0,1.6,0.1,2.3,0.3v7.6
			c-0.8-0.2-1.7-0.3-2.8-0.3c-5.7,0-9.8,4.3-10.9,10.4c-0.2,1.1-0.4,2.4-0.4,3.8v23.7h-8V1444.9z"/>
		<path d="M1032.8,1473.9c-2.1,1.1-6.8,2.6-12.8,2.6c-13.4,0-22.2-9.1-22.2-22.7c0-13.7,9.4-23.6,23.9-23.6c4.8,0,9,1.2,11.2,2.3
			l-1.8,6.3c-1.9-1.1-5-2.1-9.4-2.1c-10.2,0-15.7,7.5-15.7,16.8c0,10.3,6.6,16.7,15.5,16.7c4.6,0,7.6-1.2,9.9-2.2L1032.8,1473.9z"/>
		<path d="M1082,1452.9c0,16.5-11.4,23.6-22.2,23.6c-12.1,0-21.3-8.8-21.3-22.9c0-14.9,9.8-23.6,22.1-23.6
			C1073.3,1430,1082,1439.3,1082,1452.9z M1046.7,1453.4c0,9.8,5.6,17.1,13.5,17.1c7.7,0,13.5-7.3,13.5-17.3
			c0-7.5-3.8-17.1-13.3-17.1S1046.7,1444.9,1046.7,1453.4z"/>
		<path d="M1092.2,1443.1c0-4.6-0.1-8.4-0.4-12.1h7.2l0.5,7.4h0.2c2.2-4.2,7.4-8.4,14.7-8.4c6.2,0,15.7,3.7,15.7,19v26.6h-8.1v-25.7
			c0-7.2-2.7-13.2-10.3-13.2c-5.3,0-9.5,3.8-10.9,8.3c-0.4,1-0.6,2.4-0.6,3.8v26.8h-8.1V1443.1z"/>
		<path d="M1145.2,1431l8.7,25c1.5,4,2.7,7.7,3.6,11.4h0.3c1-3.7,2.3-7.4,3.8-11.4l8.6-25h8.5l-17.5,44.5h-7.7l-16.9-44.5H1145.2z"
			/>
		<path d="M1189.9,1454.7c0.2,10.9,7.2,15.5,15.3,15.5c5.8,0,9.3-1,12.3-2.3l1.4,5.8c-2.9,1.3-7.7,2.8-14.8,2.8
			c-13.7,0-21.9-9-21.9-22.4c0-13.4,7.9-24,20.9-24c14.5,0,18.4,12.8,18.4,21c0,1.7-0.2,2.9-0.3,3.8H1189.9z M1213.6,1448.9
			c0.1-5.2-2.1-13.2-11.2-13.2c-8.2,0-11.8,7.5-12.4,13.2H1213.6z"/>
		<path d="M1235,1431l6.3,9.6c1.7,2.5,3,4.8,4.5,7.3h0.3c1.5-2.7,2.9-5,4.4-7.4l6.3-9.5h8.7l-15.2,21.5l15.6,23h-9.2l-6.5-10
			c-1.7-2.6-3.2-5.1-4.8-7.7h-0.2c-1.5,2.7-3,5.1-4.7,7.7l-6.4,10h-8.9l15.8-22.7L1226,1431H1235z"/>
	</g>
</g>
<g id="Layer_2" class="st0">
	<g class="st1">
		<path d="M653.8,927.3h-18.9v-6.8h45.9v6.8h-19v55.2h-8.1V927.3z"/>
		<path d="M686.8,917.2h8.1V945h0.2c1.3-2.3,3.3-4.3,5.8-5.7c2.4-1.4,5.2-2.3,8.3-2.3c6,0,15.5,3.7,15.5,19v26.5h-8.1v-25.6
			c0-7.2-2.7-13.2-10.3-13.2c-5.2,0-9.4,3.7-10.9,8.1c-0.5,1.1-0.6,2.3-0.6,3.9v26.9h-8.1V917.2z"/>
		<path d="M742.4,961.7c0.2,10.9,7.2,15.5,15.3,15.5c5.8,0,9.3-1,12.3-2.3l1.4,5.8c-2.9,1.3-7.7,2.8-14.8,2.8
			c-13.7,0-21.9-9-21.9-22.4s7.9-24,20.9-24c14.5,0,18.4,12.8,18.4,21c0,1.7-0.2,2.9-0.3,3.8H742.4z M766.1,955.9
			c0.1-5.2-2.1-13.2-11.2-13.2c-8.2,0-11.8,7.5-12.4,13.2H766.1z"/>
		<path d="M827.6,980.5c-2.9,1.5-8.8,2.9-16.4,2.9c-17.5,0-30.6-11-30.6-31.4c0-19.4,13.2-32.6,32.4-32.6c7.7,0,12.6,1.7,14.7,2.8
			l-1.9,6.5c-3-1.5-7.4-2.6-12.5-2.6c-14.5,0-24.2,9.3-24.2,25.6c0,15.2,8.7,24.9,23.8,24.9c4.9,0,9.8-1,13.1-2.6L827.6,980.5z"/>
		<path d="M838.4,938l9.8,26.3c1,2.9,2.1,6.4,2.9,9.1h0.2c0.8-2.7,1.7-6.1,2.9-9.3l8.8-26.1h8.6l-12.1,31.7
			c-5.8,15.3-9.8,23.1-15.3,27.9c-4,3.5-7.9,4.9-9.9,5.2l-2-6.8c2-0.6,4.7-1.9,7.1-4c2.2-1.7,5-4.9,6.8-9c0.4-0.8,0.6-1.5,0.6-1.9
			s-0.2-1.1-0.6-2.1l-16.5-41H838.4z"/>
		<path d="M878.4,982.5c0.2-3,0.4-7.5,0.4-11.5v-53.8h8v28h0.2c2.9-5,8-8.2,15.2-8.2c11,0,18.9,9.2,18.8,22.7
			c0,15.9-10,23.8-20,23.8c-6.4,0-11.6-2.5-14.9-8.4h-0.3l-0.4,7.4H878.4z M886.8,964.7c0,1,0.2,2,0.4,2.9c1.6,5.6,6.3,9.5,12.1,9.5
			c8.5,0,13.5-6.9,13.5-17.1c0-8.9-4.6-16.6-13.2-16.6c-5.5,0-10.7,3.8-12.3,9.9c-0.2,0.9-0.5,2-0.5,3.3V964.7z"/>
		<path d="M935.7,961.7c0.2,10.9,7.2,15.5,15.3,15.5c5.8,0,9.3-1,12.3-2.3l1.4,5.8c-2.9,1.3-7.7,2.8-14.8,2.8
			c-13.7,0-21.9-9-21.9-22.4s7.9-24,20.9-24c14.5,0,18.4,12.8,18.4,21c0,1.7-0.2,2.9-0.3,3.8H935.7z M959.4,955.9
			c0.1-5.2-2.1-13.2-11.2-13.2c-8.2,0-11.8,7.5-12.4,13.2H959.4z"/>
		<path d="M977.2,951.9c0-5.2-0.1-9.8-0.4-13.9h7.1l0.3,8.7h0.4c2-6,6.9-9.8,12.3-9.8c0.9,0,1.6,0.1,2.3,0.3v7.6
			c-0.8-0.2-1.7-0.3-2.8-0.3c-5.7,0-9.8,4.3-10.9,10.4c-0.2,1.1-0.4,2.4-0.4,3.8v23.7h-8V951.9z"/>
		<path d="M1050.9,980.5c-2.9,1.5-8.8,2.9-16.4,2.9c-17.5,0-30.6-11-30.6-31.4c0-19.4,13.2-32.6,32.4-32.6c7.7,0,12.6,1.7,14.7,2.8
			l-1.9,6.5c-3-1.5-7.4-2.6-12.5-2.6c-14.5,0-24.2,9.3-24.2,25.6c0,15.2,8.7,24.9,23.8,24.9c4.9,0,9.8-1,13.1-2.6L1050.9,980.5z"/>
		<path d="M1100,959.9c0,16.5-11.4,23.6-22.2,23.6c-12.1,0-21.3-8.8-21.3-22.9c0-14.9,9.8-23.6,22.1-23.6
			C1091.3,937,1100,946.3,1100,959.9z M1064.6,960.3c0,9.8,5.6,17.1,13.5,17.1c7.7,0,13.5-7.3,13.5-17.3c0-7.5-3.8-17.1-13.3-17.1
			C1068.8,943,1064.6,951.9,1064.6,960.3z"/>
		<path d="M1110.2,950c0-4.6-0.1-8.4-0.4-12.1h7.2l0.5,7.4h0.2c2.2-4.2,7.4-8.4,14.7-8.4c6.2,0,15.7,3.7,15.7,19v26.6h-8.1v-25.7
			c0-7.2-2.7-13.2-10.3-13.2c-5.3,0-9.5,3.8-10.9,8.3c-0.4,1-0.6,2.4-0.6,3.8v26.8h-8.1V950z"/>
		<path d="M1163.2,938l8.7,25c1.5,4,2.7,7.7,3.6,11.4h0.3c1-3.7,2.3-7.4,3.8-11.4l8.6-25h8.5l-17.5,44.5h-7.7l-16.9-44.5H1163.2z"/>
		<path d="M1207.9,961.7c0.2,10.9,7.2,15.5,15.3,15.5c5.8,0,9.3-1,12.3-2.3l1.4,5.8c-2.9,1.3-7.7,2.8-14.8,2.8
			c-13.7,0-21.9-9-21.9-22.4s7.9-24,20.9-24c14.5,0,18.4,12.8,18.4,21c0,1.7-0.2,2.9-0.3,3.8H1207.9z M1231.6,955.9
			c0.1-5.2-2.1-13.2-11.2-13.2c-8.2,0-11.8,7.5-12.4,13.2H1231.6z"/>
		<path d="M1253,938l6.3,9.6c1.7,2.5,3,4.8,4.5,7.3h0.3c1.5-2.7,2.9-5,4.4-7.4l6.3-9.5h8.7l-15.2,21.5l15.6,23h-9.2l-6.5-10
			c-1.7-2.6-3.2-5.1-4.8-7.7h-0.2c-1.5,2.7-3,5.1-4.7,7.7l-6.4,10h-8.9l15.8-22.7L1244,938H1253z"/>
	</g>
	<g class="st1">
		<path d="M617.3,506.4h-18.9v-6.8h45.9v6.8h-19v55.2h-8.1V506.4z"/>
		<path d="M659.2,499.6v25.9h30v-25.9h8.1v62h-8.1v-29.1h-30v29.1h-8v-62H659.2z"/>
		<path d="M743.3,532.5h-24.1v22.4h26.9v6.7h-34.9v-62h33.5v6.7h-25.5v19.6h24.1V532.5z"/>
		<path d="M799.8,559.6c-2.9,1.5-8.8,2.9-16.4,2.9c-17.5,0-30.6-11-30.6-31.4c0-19.4,13.2-32.6,32.4-32.6c7.7,0,12.6,1.7,14.7,2.8
			l-1.9,6.5c-3-1.5-7.4-2.6-12.5-2.6c-14.5,0-24.2,9.3-24.2,25.6c0,15.2,8.7,24.9,23.8,24.9c4.9,0,9.8-1,13.1-2.6L799.8,559.6z"/>
		<path d="M823.9,561.6v-26.3l-19.6-35.7h9.1l8.7,17.1c2.4,4.7,4.2,8.5,6.2,12.8h0.2c1.7-4,3.9-8.1,6.3-12.8l8.9-17.1h9.1L832,535.2
			v26.4H823.9z"/>
		<path d="M859.2,500.4c3.5-0.7,9-1.3,14.6-1.3c8,0,13.2,1.4,17,4.5c3.2,2.4,5.2,6.1,5.2,10.9c0,6-4,11.2-10.5,13.6v0.2
			c5.9,1.5,12.8,6.3,12.8,15.5c0,5.3-2.1,9.4-5.2,12.4c-4.3,4-11.3,5.8-21.4,5.8c-5.5,0-9.8-0.4-12.4-0.7V500.4z M867.2,525.8h7.3
			c8.5,0,13.4-4.4,13.4-10.4c0-7.3-5.5-10.1-13.6-10.1c-3.7,0-5.8,0.3-7.1,0.6V525.8z M867.2,555.5c1.6,0.3,3.9,0.4,6.7,0.4
			c8.3,0,15.9-3,15.9-12.1c0-8.5-7.3-12-16-12h-6.6V555.5z"/>
		<path d="M941.2,532.5h-24.1v22.4h26.9v6.7h-34.9v-62h33.5v6.7h-25.5v19.6h24.1V532.5z"/>
		<path d="M954.3,500.4c4-0.8,9.8-1.3,15.4-1.3c8.6,0,14.1,1.6,17.9,5.1c3.1,2.8,4.9,7,4.9,11.8c0,8.2-5.2,13.6-11.7,15.8v0.3
			c4.8,1.7,7.6,6.1,9.1,12.5c2,8.6,3.5,14.6,4.8,17h-8.3c-1-1.7-2.4-7.1-4.1-14.8c-1.8-8.6-5.2-11.8-12.4-12.1h-7.5v26.9h-8V500.4z
			 M962.3,528.6h8.2c8.6,0,14-4.7,14-11.8c0-8-5.8-11.5-14.3-11.6c-3.9,0-6.6,0.4-7.9,0.7V528.6z"/>
		<path d="M1047.4,559.6c-2.9,1.5-8.8,2.9-16.4,2.9c-17.5,0-30.6-11-30.6-31.4c0-19.4,13.2-32.6,32.4-32.6c7.7,0,12.6,1.7,14.7,2.8
			l-1.9,6.5c-3-1.5-7.4-2.6-12.5-2.6c-14.5,0-24.2,9.3-24.2,25.6c0,15.2,8.7,24.9,23.8,24.9c4.9,0,9.8-1,13.1-2.6L1047.4,559.6z"/>
		<path d="M1108.5,529.9c0,21.3-13,32.7-28.8,32.7c-16.4,0-27.9-12.7-27.9-31.5c0-19.7,12.2-32.6,28.8-32.6
			C1097.6,498.6,1108.5,511.5,1108.5,529.9z M1060.4,530.9c0,13.2,7.2,25.1,19.8,25.1c12.7,0,19.9-11.7,19.9-25.8
			c0-12.3-6.4-25.2-19.8-25.2C1067,505.1,1060.4,517.3,1060.4,530.9z"/>
		<path d="M1118.9,561.6v-62h8.7l19.9,31.4c4.6,7.3,8.2,13.8,11.1,20.1l0.2-0.1c-0.7-8.3-0.9-15.8-0.9-25.5v-25.9h7.5v62h-8.1
			l-19.7-31.5c-4.3-6.9-8.5-14-11.6-20.7l-0.3,0.1c0.5,7.8,0.6,15.3,0.6,25.6v26.5H1118.9z"/>
		<path d="M1193.1,561.6l-20.2-62h8.6l9.7,30.5c2.7,8.4,5,15.9,6.6,23.2h0.2c1.7-7.2,4.3-15,7.1-23.1l10.5-30.6h8.6l-22.2,62H1193.1
			z"/>
		<path d="M1262.9,532.5h-24.1v22.4h26.9v6.7h-34.9v-62h33.5v6.7h-25.5v19.6h24.1V532.5z"/>
		<path d="M1310,561.6l-7.9-13.7c-3.2-5.2-5.2-8.6-7.2-12.2h-0.2c-1.7,3.6-3.5,6.9-6.7,12.3l-7.5,13.6h-9.2l19-31.4l-18.2-30.6h9.3
			l8.2,14.5c2.3,4,4,7.2,5.7,10.5h0.3c1.7-3.7,3.3-6.5,5.6-10.5l8.5-14.5h9.2l-18.9,30.2l19.3,31.8H1310z"/>
	</g>
	<g class="st1">
		<path d="M669.4,1418.2v12.8H681v6.2h-11.6v24c0,5.5,1.6,8.6,6.1,8.6c2.1,0,3.7-0.3,4.7-0.6l0.4,6.1c-1.6,0.6-4,1.1-7.2,1.1
			c-3.8,0-6.8-1.2-8.7-3.4c-2.3-2.4-3.1-6.3-3.1-11.6v-24.3h-6.9v-6.2h6.9v-10.7L669.4,1418.2z"/>
		<path d="M690.1,1410.2h8.1v27.8h0.2c1.3-2.3,3.3-4.3,5.8-5.7c2.4-1.4,5.2-2.3,8.3-2.3c6,0,15.5,3.7,15.5,19v26.5h-8.1V1450
			c0-7.2-2.7-13.2-10.3-13.2c-5.2,0-9.4,3.7-10.9,8.1c-0.5,1.1-0.6,2.3-0.6,3.9v26.9h-8.1V1410.2z"/>
		<path d="M745.6,1454.7c0.2,10.9,7.2,15.5,15.3,15.5c5.8,0,9.3-1,12.3-2.3l1.4,5.8c-2.9,1.3-7.7,2.8-14.8,2.8
			c-13.7,0-21.9-9-21.9-22.4c0-13.4,7.9-24,20.9-24c14.5,0,18.4,12.8,18.4,21c0,1.7-0.2,2.9-0.3,3.8H745.6z M769.4,1448.9
			c0.1-5.2-2.1-13.2-11.2-13.2c-8.2,0-11.8,7.5-12.4,13.2H769.4z"/>
		<path d="M819,1473.9c-2.1,1.1-6.8,2.6-12.8,2.6c-13.4,0-22.2-9.1-22.2-22.7c0-13.7,9.4-23.6,23.9-23.6c4.8,0,9,1.2,11.2,2.3
			l-1.8,6.3c-1.9-1.1-5-2.1-9.4-2.1c-10.2,0-15.7,7.5-15.7,16.8c0,10.3,6.6,16.7,15.5,16.7c4.6,0,7.6-1.2,9.9-2.2L819,1473.9z"/>
		<path d="M833,1431l9.8,26.3c1,2.9,2.1,6.4,2.9,9.1h0.2c0.8-2.7,1.7-6.1,2.9-9.3l8.8-26.1h8.6l-12.1,31.7
			c-5.8,15.3-9.8,23.1-15.3,27.9c-4,3.5-7.9,4.9-9.9,5.2l-2-6.8c2-0.6,4.7-1.9,7.1-4c2.2-1.7,5-4.9,6.8-9c0.4-0.8,0.6-1.5,0.6-1.9
			s-0.2-1.1-0.6-2.1l-16.5-41H833z"/>
		<path d="M873.1,1475.5c0.2-3,0.4-7.5,0.4-11.5v-53.8h8v28h0.2c2.9-5,8-8.2,15.2-8.2c11,0,18.9,9.2,18.8,22.7
			c0,15.9-10,23.8-20,23.8c-6.4,0-11.6-2.5-14.9-8.4h-0.3l-0.4,7.4H873.1z M881.4,1457.7c0,1,0.2,2,0.4,2.9
			c1.6,5.6,6.3,9.5,12.1,9.5c8.5,0,13.5-6.9,13.5-17.1c0-8.9-4.6-16.6-13.2-16.6c-5.5,0-10.7,3.8-12.3,9.9c-0.2,0.9-0.5,2-0.5,3.3
			V1457.7z"/>
		<path d="M930.3,1454.7c0.2,10.9,7.2,15.5,15.3,15.5c5.8,0,9.3-1,12.3-2.3l1.4,5.8c-2.9,1.3-7.7,2.8-14.8,2.8
			c-13.7,0-21.9-9-21.9-22.4c0-13.4,7.9-24,20.9-24c14.5,0,18.4,12.8,18.4,21c0,1.7-0.2,2.9-0.3,3.8H930.3z M954,1448.9
			c0.1-5.2-2.1-13.2-11.2-13.2c-8.2,0-11.8,7.5-12.4,13.2H954z"/>
		<path d="M971.9,1444.9c0-5.2-0.1-9.8-0.4-13.9h7.1l0.3,8.7h0.4c2-6,6.9-9.8,12.3-9.8c0.9,0,1.6,0.1,2.3,0.3v7.6
			c-0.8-0.2-1.7-0.3-2.8-0.3c-5.7,0-9.8,4.3-10.9,10.4c-0.2,1.1-0.4,2.4-0.4,3.8v23.7h-8V1444.9z"/>
		<path d="M1032.8,1473.9c-2.1,1.1-6.8,2.6-12.8,2.6c-13.4,0-22.2-9.1-22.2-22.7c0-13.7,9.4-23.6,23.9-23.6c4.8,0,9,1.2,11.2,2.3
			l-1.8,6.3c-1.9-1.1-5-2.1-9.4-2.1c-10.2,0-15.7,7.5-15.7,16.8c0,10.3,6.6,16.7,15.5,16.7c4.6,0,7.6-1.2,9.9-2.2L1032.8,1473.9z"/>
		<path d="M1082,1452.9c0,16.5-11.4,23.6-22.2,23.6c-12.1,0-21.3-8.8-21.3-22.9c0-14.9,9.8-23.6,22.1-23.6
			C1073.3,1430,1082,1439.3,1082,1452.9z M1046.7,1453.4c0,9.8,5.6,17.1,13.5,17.1c7.7,0,13.5-7.3,13.5-17.3
			c0-7.5-3.8-17.1-13.3-17.1S1046.7,1444.9,1046.7,1453.4z"/>
		<path d="M1092.2,1443.1c0-4.6-0.1-8.4-0.4-12.1h7.2l0.5,7.4h0.2c2.2-4.2,7.4-8.4,14.7-8.4c6.2,0,15.7,3.7,15.7,19v26.6h-8.1v-25.7
			c0-7.2-2.7-13.2-10.3-13.2c-5.3,0-9.5,3.8-10.9,8.3c-0.4,1-0.6,2.4-0.6,3.8v26.8h-8.1V1443.1z"/>
		<path d="M1145.2,1431l8.7,25c1.5,4,2.7,7.7,3.6,11.4h0.3c1-3.7,2.3-7.4,3.8-11.4l8.6-25h8.5l-17.5,44.5h-7.7l-16.9-44.5H1145.2z"
			/>
		<path d="M1189.9,1454.7c0.2,10.9,7.2,15.5,15.3,15.5c5.8,0,9.3-1,12.3-2.3l1.4,5.8c-2.9,1.3-7.7,2.8-14.8,2.8
			c-13.7,0-21.9-9-21.9-22.4c0-13.4,7.9-24,20.9-24c14.5,0,18.4,12.8,18.4,21c0,1.7-0.2,2.9-0.3,3.8H1189.9z M1213.6,1448.9
			c0.1-5.2-2.1-13.2-11.2-13.2c-8.2,0-11.8,7.5-12.4,13.2H1213.6z"/>
		<path d="M1235,1431l6.3,9.6c1.7,2.5,3,4.8,4.5,7.3h0.3c1.5-2.7,2.9-5,4.4-7.4l6.3-9.5h8.7l-15.2,21.5l15.6,23h-9.2l-6.5-10
			c-1.7-2.6-3.2-5.1-4.8-7.7h-0.2c-1.5,2.7-3,5.1-4.7,7.7l-6.4,10h-8.9l15.8-22.7L1226,1431H1235z"/>
	</g>
</g>
<g id="Layer_3" class="st0">
	<ellipse class="st6" cx="2287" cy="974" rx="1009.3" ry="882"/>
</g>
<g id="Layer_4" class="st0">
</g>
<g id="Layer_5" class="st0">
</g>
<g id="Layer_6" class="st0">
</g>
<g id="Layer_7" class="st0">
</g>
<g id="Layer_8" class="st0">
</g>
<g id="final">
	<g id="Layer_10">
	</g>
</g>
<g id="Layer_11" class="st0">
</g>
</svg>
